M48
METRIC,LZ,000.000
;FILE_FORMAT=3:3
;TYPE=PLATED
;Layer: PTH_Through
;EasyEDA v6.5.22, 2023-03-24 07:10:57
;6991770a96b14d5289c1552341fa82f2,10
;Gerber Generator version 0.2
;Holesize 1 = 0.900 mm
T01C0.900
;Holesize 2 = 0.901 mm
T02C0.901
;Holesize 3 = 1.000 mm
T03C1.000
;Holesize 4 = 1.101 mm
T04C1.101
;Holesize 5 = 1.270 mm
T05C1.270
%
G05
G90
T01
X015240Y015367
X015240Y007747
X014605Y022225
X006985Y022225
T02
X023622Y024765
X021082Y024765
T03
X020320Y017780
X020320Y015240
X020320Y012700
X020320Y010160
X020320Y007620
X020320Y005080
X020320Y002540
T04
X002540Y027940
X002540Y025400
X005080Y027940
X005080Y025400
X007620Y027940
X007620Y025400
X010160Y027940
X010160Y025400
X012700Y027940
X012700Y025400
X015240Y027940
X015240Y025400
X017780Y027940
X017780Y025400
X020320Y020320
T05
X007620Y005207
X002540Y010287
X007747Y010287
X002540Y005207
M30
