G04 Layer: BottomSilkscreenLayer*
G04 EasyEDA v6.5.22, 2023-03-24 07:10:57*
G04 6991770a96b14d5289c1552341fa82f2,10*
G04 Gerber Generator version 0.2*
G04 Scale: 100 percent, Rotated: No, Reflected: No *
G04 Dimensions in millimeters *
G04 leading zeros omitted , absolute positions ,4 integer and 5 decimal *
%FSLAX45Y45*%
%MOMM*%

%ADD10C,0.1524*%
%ADD11C,0.1500*%
%ADD12C,0.2540*%

%LPD*%
D10*
X1384300Y1347238D02*
G01*
X1384300Y1238135D01*
X1384300Y1347238D02*
G01*
X1337541Y1347238D01*
X1321955Y1342044D01*
X1316758Y1336847D01*
X1311564Y1326456D01*
X1311564Y1316065D01*
X1316758Y1305674D01*
X1321955Y1300479D01*
X1337541Y1295285D01*
X1384300Y1295285D01*
X1347932Y1295285D02*
G01*
X1311564Y1238135D01*
X1277274Y1326456D02*
G01*
X1266883Y1331653D01*
X1251295Y1347238D01*
X1251295Y1238135D01*
X278129Y2299715D02*
G01*
X278129Y2216657D01*
X283463Y2200910D01*
X288544Y2195829D01*
X298957Y2190750D01*
X309371Y2190750D01*
X319786Y2195829D01*
X325120Y2200910D01*
X330200Y2216657D01*
X330200Y2227071D01*
X243839Y2278887D02*
G01*
X233679Y2284221D01*
X217931Y2299715D01*
X217931Y2190750D01*
X1841500Y2083815D02*
G01*
X1841500Y1974850D01*
X1768855Y2083815D02*
G01*
X1768855Y1974850D01*
X1841500Y2032000D02*
G01*
X1768855Y2032000D01*
X1734565Y2062987D02*
G01*
X1724152Y2068321D01*
X1708404Y2083815D01*
X1708404Y1974850D01*
X1143000Y2083815D02*
G01*
X1143000Y1974850D01*
X1143000Y2083815D02*
G01*
X1096263Y2083815D01*
X1080770Y2078736D01*
X1075436Y2073402D01*
X1070355Y2062987D01*
X1070355Y2052573D01*
X1075436Y2042160D01*
X1080770Y2037079D01*
X1096263Y2032000D01*
X1143000Y2032000D01*
X1106678Y2032000D02*
G01*
X1070355Y1974850D01*
X1030731Y2057907D02*
G01*
X1030731Y2062987D01*
X1025652Y2073402D01*
X1020318Y2078736D01*
X1009904Y2083815D01*
X989329Y2083815D01*
X978915Y2078736D01*
X973581Y2073402D01*
X968502Y2062987D01*
X968502Y2052573D01*
X973581Y2042160D01*
X983995Y2026665D01*
X1036065Y1974850D01*
X963168Y1974850D01*
X2412880Y2934695D02*
G01*
X2412883Y2825729D01*
X2412883Y2825729D02*
G01*
X2350653Y2825729D01*
X2316360Y2934695D02*
G01*
X2316360Y2825729D01*
X2316360Y2934695D02*
G01*
X2248796Y2934695D01*
X2316363Y2882879D02*
G01*
X2274707Y2882877D01*
X2316360Y2825729D02*
G01*
X2248799Y2825729D01*
X2214509Y2934695D02*
G01*
X2214506Y2825729D01*
X2214509Y2934695D02*
G01*
X2178187Y2934695D01*
X2162690Y2929615D01*
X2152279Y2919199D01*
X2146942Y2908787D01*
X2141862Y2893293D01*
X2141865Y2867129D01*
X2146945Y2851637D01*
X2152279Y2841223D01*
X2162693Y2830807D01*
X2178187Y2825727D01*
X2214506Y2825729D01*
X2107575Y2913867D02*
G01*
X2097161Y2919199D01*
X2081413Y2934693D01*
X2081413Y2825727D01*
D11*
X547255Y1283738D02*
G01*
X599208Y1283738D01*
X604405Y1236979D01*
X599208Y1242174D01*
X583623Y1247371D01*
X568035Y1247371D01*
X552450Y1242174D01*
X542058Y1231783D01*
X536864Y1216197D01*
X536864Y1205806D01*
X542058Y1190221D01*
X552450Y1179829D01*
X568035Y1174635D01*
X583623Y1174635D01*
X599208Y1179829D01*
X604405Y1185024D01*
X609600Y1195415D01*
X502574Y1283738D02*
G01*
X461010Y1174635D01*
X419447Y1283738D02*
G01*
X461010Y1174635D01*
X582467Y317962D02*
G01*
X587664Y328353D01*
X598055Y338744D01*
X608444Y343938D01*
X629226Y343938D01*
X639617Y338744D01*
X650008Y328353D01*
X655205Y317962D01*
X660400Y302374D01*
X660400Y276397D01*
X655205Y260812D01*
X650008Y250421D01*
X639617Y240029D01*
X629226Y234835D01*
X608444Y234835D01*
X598055Y240029D01*
X587664Y250421D01*
X582467Y260812D01*
X582467Y276397D01*
X608444Y276397D02*
G01*
X582467Y276397D01*
X548177Y343938D02*
G01*
X548177Y234835D01*
X548177Y343938D02*
G01*
X475442Y234835D01*
X475442Y343938D02*
G01*
X475442Y234835D01*
X441152Y343938D02*
G01*
X441152Y234835D01*
X441152Y343938D02*
G01*
X404784Y343938D01*
X389196Y338744D01*
X378807Y328353D01*
X373611Y317962D01*
X368416Y302374D01*
X368416Y276397D01*
X373611Y260812D01*
X378807Y250421D01*
X389196Y240029D01*
X404784Y234835D01*
X441152Y234835D01*
X2133600Y2719994D02*
G01*
X2040082Y2719994D01*
X2391641Y2766753D02*
G01*
X2391641Y2673235D01*
X2438400Y2719994D02*
G01*
X2344882Y2719994D01*
D12*
X1524000Y1409700D02*
G01*
X1524000Y1435100D01*
X1524000Y901700D02*
G01*
X1524000Y876300D01*
X1524000Y1409700D02*
G01*
X1447800Y1409700D01*
X1600200Y1409700D02*
G01*
X1524000Y1409700D01*
X1600200Y901700D02*
G01*
X1600200Y1409700D01*
X1524000Y901700D02*
G01*
X1600200Y901700D01*
X1447800Y901700D02*
G01*
X1524000Y901700D01*
X1447800Y1409700D02*
G01*
X1447800Y901700D01*
X107000Y2407003D02*
G01*
X1924999Y2407000D01*
X1924999Y2407003D02*
G01*
X1924999Y2926999D01*
X1924999Y2926996D02*
G01*
X107000Y2926999D01*
X107000Y2926996D02*
G01*
X106994Y2407000D01*
X383255Y2669633D02*
G01*
X383255Y2926999D01*
X383255Y2669633D02*
G01*
X106997Y2669633D01*
X1905000Y1902647D02*
G01*
X2159000Y1902647D01*
X1905000Y127002D02*
G01*
X2159000Y127002D01*
X2159000Y2158997D01*
X1905000Y2158997D01*
X1905000Y127002D01*
X1333500Y2222500D02*
G01*
X1358900Y2222500D01*
X825500Y2222500D02*
G01*
X800100Y2222500D01*
X1333500Y2222500D02*
G01*
X1333500Y2298700D01*
X1333500Y2146300D02*
G01*
X1333500Y2222500D01*
X825500Y2146300D02*
G01*
X1333500Y2146300D01*
X825500Y2222500D02*
G01*
X825500Y2146300D01*
X825500Y2298700D02*
G01*
X825500Y2222500D01*
X1333500Y2298700D02*
G01*
X825500Y2298700D01*
X2067052Y2349500D02*
G01*
X2066518Y2604289D01*
G75*
G01*
X2067052Y2603043D02*
G02*
X2067052Y2349551I154710J-126746D01*
M02*
