G04 Layer: BottomLayer*
G04 EasyEDA v6.5.22, 2023-03-24 07:10:57*
G04 6991770a96b14d5289c1552341fa82f2,10*
G04 Gerber Generator version 0.2*
G04 Scale: 100 percent, Rotated: No, Reflected: No *
G04 Dimensions in millimeters *
G04 leading zeros omitted , absolute positions ,4 integer and 5 decimal *
%FSLAX45Y45*%
%MOMM*%

%AMMACRO1*21,1,$1,$2,0,0,$3*%
%ADD10C,0.2540*%
%ADD11C,0.4000*%
%ADD12C,1.5000*%
%ADD13C,1.8796*%
%ADD14MACRO1,1.8X1.8X0.0000*%
%ADD15C,1.8000*%
%ADD16MACRO1,1.5X1.5X-90.0000*%
%ADD17C,1.7000*%
%ADD18C,1.6510*%
%ADD19C,2.5000*%

%LPD*%
D10*
X2032000Y1270000D02*
G01*
X1473200Y1270000D01*
X889000Y1854200D01*
X889000Y2667000D01*
X762000Y2794000D01*
D11*
X2032000Y508000D02*
G01*
X1790700Y508000D01*
X1524000Y774700D01*
D12*
X774700Y1028700D02*
G01*
X254000Y1028700D01*
X2032000Y254000D02*
G01*
X1028700Y254000D01*
X762000Y520700D01*
D11*
X2362200Y2476500D02*
G01*
X2108200Y2222500D01*
X1460500Y2222500D01*
D10*
X2032000Y2032000D02*
G01*
X1955800Y1955800D01*
X1308100Y1955800D01*
X1092200Y2171700D01*
X1092200Y2463800D01*
X1016000Y2540000D01*
D12*
X2032000Y1016000D02*
G01*
X787400Y1016000D01*
X774700Y1028700D01*
X254000Y520700D02*
G01*
X762000Y520700D01*
X2032000Y762000D02*
G01*
X2146300Y762000D01*
X2286000Y622300D01*
X2286000Y393700D01*
X2146300Y254000D01*
X2032000Y254000D01*
X2032000Y1778000D02*
G01*
X2159000Y1778000D01*
X2298700Y1638300D01*
X2298700Y1143000D01*
X2171700Y1016000D01*
X2032000Y1016000D01*
D13*
G01*
X1524000Y1536700D03*
G01*
X1524000Y774700D03*
D14*
G01*
X254000Y2794000D03*
D15*
G01*
X254000Y2540000D03*
G01*
X508000Y2794000D03*
G01*
X508000Y2540000D03*
G01*
X762000Y2794000D03*
G01*
X762000Y2540000D03*
G01*
X1016000Y2794000D03*
G01*
X1016000Y2540000D03*
G01*
X1270000Y2794000D03*
G01*
X1270000Y2540000D03*
G01*
X1524000Y2794000D03*
G01*
X1524000Y2540000D03*
G01*
X1778000Y2794000D03*
G01*
X1778000Y2540000D03*
D16*
G01*
X2032000Y2031998D03*
D17*
G01*
X2032000Y1778000D03*
G01*
X2032000Y1524000D03*
G01*
X2032000Y1270000D03*
G01*
X2032000Y1016000D03*
G01*
X2032000Y762000D03*
G01*
X2032000Y508000D03*
G01*
X2032000Y254000D03*
D13*
G01*
X1460500Y2222500D03*
G01*
X698500Y2222500D03*
D18*
G01*
X2362200Y2476500D03*
G01*
X2108200Y2476500D03*
D19*
G01*
X762000Y520700D03*
G01*
X254000Y1028700D03*
G01*
X774700Y1028700D03*
G01*
X254000Y520700D03*
M02*
